<?xml version="1.0" encoding="UTF-8"?>
<svg width="19px" height="10px" viewBox="0 0 19 10" version="1.1" xmlns="http://www.w3.org/2000/svg" xmlns:xlink="http://www.w3.org/1999/xlink">
    <!-- Generator: Sketch 51.3 (57544) - http://www.bohemiancoding.com/sketch -->
    <title>Combined Shape</title>
    <desc>Created with Sketch.</desc>
    <defs></defs>
    <g id="Page-1" stroke="none" stroke-width="1" fill="none" fill-rule="evenodd">
        <g id="Artboard" transform="translate(-774.000000, -1763.000000)" fill="#FFFFFF">
            <g id="CTA" transform="translate(452.000000, 1629.000000)">
                <g id="Button" transform="translate(176.000000, 111.000000)">
                    <path d="M159,27 L159,24.9431893 C159,24.3909046 159.447715,23.9431893 160,23.9431893 C160.208423,23.9431893 160.411637,24.0083125 160.581238,24.1294559 L164.29116,26.7793998 C164.965279,27.2609133 165.121416,28.1977384 164.639903,28.8718573 C164.543693,29.0065506 164.425853,29.1243907 164.29116,29.2206002 L160.581238,31.8705441 C160.131826,32.1915531 159.507276,32.0874615 159.186267,31.6380489 C159.065123,31.4684481 159,31.2652337 159,31.0568107 L159,29 L147,29 C146.447715,29 146,28.5522847 146,28 C146,27.4477153 146.447715,27 147,27 L159,27 Z" id="Combined-Shape"></path>
                </g>
            </g>
        </g>
    </g>
</svg>